<svg width="1000" height="314" viewBox="0 0 1000 314" fill="none" xmlns="http://www.w3.org/2000/svg">
<path d="M279.439 140.788V56.1875H58.8691V270.258H279.449V175.198V156.597H217.909V175.198H261.009V251.518H76.6391V75.6575H261.119V140.788H279.449H279.439Z" fill="black" style="fill:black;fill-opacity:1;"/>
<path d="M252.5 140.739V83.7891H86.6699V242.799H173.55V140.919H211.16V122.079H118.7V141.079H154.88V224.099H104.9V102.979H234.49V140.739H252.5Z" fill="black" style="fill:black;fill-opacity:1;"/>
<path d="M183.309 242.78H252.499V191.07H234.199V224.31H183.309V242.78Z" fill="black" style="fill:black;fill-opacity:1;"/>
<path d="M359.899 184.162H328.179C327.709 184.162 327.559 183.783 327.559 183.653C327.559 181.753 337.409 182.263 337.409 175.943V98.1625C337.259 94.4925 332.569 94.1225 326.789 94.1225H322.099C316.009 94.1225 311.319 95.5125 308.039 98.1625C304.759 100.823 301.479 103.473 298.509 106.383C297.259 107.523 296.789 108.283 296.169 108.283C295.389 108.283 295.389 107.773 295.549 106.763L300.709 89.3125H387.439L392.599 106.763C392.749 107.773 392.749 108.283 391.979 108.283C391.359 108.283 390.889 107.523 389.639 106.383C386.669 103.473 383.389 100.813 380.109 98.1625C376.829 95.5025 372.139 94.1225 366.049 94.1225H361.359C355.579 94.1225 350.889 94.5025 350.739 98.1625V175.943C350.739 182.273 360.589 181.763 360.589 183.653C360.579 183.783 360.419 184.162 359.949 184.162H359.899Z" fill="#242D32" style="fill:#242D32;fill:color(display-p3 0.1412 0.1765 0.1961);fill-opacity:1;"/>
<path fill-rule="evenodd" clip-rule="evenodd" d="M398.358 184.12H427.298C427.768 184.12 427.928 183.74 427.928 183.61C427.928 182.98 426.818 182.61 425.368 182.13C422.658 181.22 418.759 179.9 418.759 175.83V140.14C424.679 142.72 431.199 143.76 438.569 143.84L465.358 177.54C467.948 180.8 465.559 181.84 463.889 182.57C462.999 182.96 462.318 183.26 462.708 183.76C462.828 183.91 463.189 184.17 463.669 184.17H490.358C490.828 184.17 490.689 183.81 490.569 183.66C490.179 183.16 489.109 182.64 487.599 182.25C484.779 181.52 481.139 180.39 478.559 177.14L451.048 142.65C466.868 139.3 479.309 129.21 479.309 115.77C479.309 98.2797 461.759 87.6797 436.309 87.6797C429.349 87.6797 424.299 87.9697 419.039 88.2797C413.319 88.6097 407.338 88.9597 398.358 88.9597C397.888 88.9597 397.729 89.3497 397.729 89.4697C397.729 90.0897 398.649 90.4697 399.849 90.9497C402.099 91.8597 405.319 93.1797 405.319 97.2497V175.84C405.319 179.92 402.099 181.23 399.849 182.14C398.649 182.63 397.729 183 397.729 183.62C397.729 183.75 397.888 184.13 398.358 184.13V184.12ZM464.289 115.75C464.289 129.03 455.439 139.75 439.469 139.75C433.149 139.75 424.609 138.86 418.759 134.9V97.8697C418.759 92.3797 429.669 91.7397 436.309 91.7397C456.069 91.7397 464.289 101.31 464.289 115.74V115.75Z" fill="#242D32" style="fill:#242D32;fill:color(display-p3 0.1412 0.1765 0.1961);fill-opacity:1;"/>
<path d="M517.669 175.308V137.828H559.669V133.028H517.669V98.1682C517.829 94.4982 522.519 94.1281 528.309 94.1281H548.179C558.969 94.1281 565.859 96.0282 570.079 100.198C571.489 101.838 572.269 102.478 573.049 102.478C573.829 102.478 574.149 102.098 573.519 100.578L568.829 89.3281H497.489C497.019 89.3281 496.869 89.7081 496.869 89.8381C496.869 91.6081 504.379 91.3581 504.379 97.5481V175.958C504.379 182.148 496.869 181.898 496.869 183.668C496.869 183.798 497.029 184.178 497.489 184.178H570.859L579.459 167.358C579.929 166.348 579.619 165.838 578.839 165.838C578.219 165.838 577.749 166.348 576.499 167.478C573.209 170.388 569.309 173.168 564.609 175.698C559.919 178.098 553.509 179.368 545.519 179.368H528.309C522.519 179.368 517.829 178.988 517.669 175.328V175.308Z" fill="#242D32" style="fill:#242D32;fill:color(display-p3 0.1412 0.1765 0.1961);fill-opacity:1;"/>
<path d="M580.108 89.3125H606.988C607.458 89.3125 607.608 89.6925 607.608 89.8225C607.608 91.3325 600.198 92.0925 602.818 97.8925L632.938 170.042L661.988 97.5125C663.838 91.4625 657.198 91.7125 657.198 89.8225C657.198 89.6925 657.358 89.3125 657.818 89.3125H678.978C679.448 89.3125 679.598 89.6925 679.598 89.8225C679.598 91.5925 672.028 91.8425 669.398 97.5125L632.788 185.812H627.848L589.528 97.2625C586.288 91.9625 579.488 91.4625 579.488 89.8225C579.488 89.6925 579.648 89.3125 580.108 89.3125Z" fill="#242D32" style="fill:#242D32;fill:color(display-p3 0.1412 0.1765 0.1961);fill-opacity:1;"/>
<path d="M714.319 184.162H687.259C686.789 184.162 686.639 183.783 686.639 183.653C686.639 181.883 694.149 182.133 694.149 175.943V97.5325C694.149 91.3325 686.639 91.5925 686.639 89.8225C686.639 89.6925 686.799 89.3125 687.259 89.3125H714.319C714.789 89.3125 714.939 89.6925 714.939 89.8225C714.939 91.5925 707.429 91.3425 707.429 97.5325V175.943C707.429 182.143 714.939 181.883 714.939 183.653C714.939 183.783 714.779 184.153 714.319 184.153V184.162Z" fill="#242D32" style="fill:#242D32;fill:color(display-p3 0.1412 0.1765 0.1961);fill-opacity:1;"/>
<path d="M749.099 97.3225V175.292C749.249 178.972 753.899 179.352 759.639 179.352H761.969C778.249 179.352 787.549 171.243 794.209 165.153C795.449 164.013 795.919 163.503 796.539 163.503C797.309 163.503 797.619 164.013 797.159 165.023L787.079 184.162H729.099C728.629 184.162 728.479 183.783 728.479 183.653C728.479 181.873 735.919 182.132 735.919 175.912V97.3125C735.919 91.1025 728.479 91.3525 728.479 89.5725C728.479 89.4425 728.639 89.0625 729.099 89.0625H757.009C757.469 89.0625 757.629 89.4425 757.629 89.5725C757.629 91.3525 749.099 91.0925 749.099 97.3125V97.3225Z" fill="#242D32" style="fill:#242D32;fill:color(display-p3 0.1412 0.1765 0.1961);fill-opacity:1;"/>
<path d="M821.929 97.4709V175.441C822.079 179.121 826.729 179.501 832.469 179.501H834.799C851.079 179.501 860.379 171.391 867.039 165.301C868.279 164.161 868.749 163.651 869.369 163.651C870.139 163.651 870.449 164.161 869.989 165.171L859.909 184.311H801.929C801.459 184.311 801.309 183.931 801.309 183.801C801.309 182.021 808.749 182.281 808.749 176.061V97.4609C808.749 91.2509 801.309 91.5009 801.309 89.7209C801.309 89.5909 801.469 89.2109 801.929 89.2109H829.839C830.299 89.2109 830.459 89.5909 830.459 89.7209C830.459 91.5009 821.929 91.2409 821.929 97.4609V97.4709Z" fill="#242D32" style="fill:#242D32;fill:color(display-p3 0.1412 0.1765 0.1961);fill-opacity:1;"/>
<path d="M895.73 175.308V137.828H937.73V133.028H895.73V98.1682C895.89 94.4982 900.58 94.1281 906.37 94.1281H926.24C937.03 94.1281 943.92 96.0282 948.14 100.198C949.55 101.838 950.33 102.478 951.11 102.478C951.89 102.478 952.21 102.098 951.58 100.578L946.88 89.3281H875.55C875.08 89.3281 874.93 89.7081 874.93 89.8381C874.93 91.6081 882.44 91.3581 882.44 97.5481V175.958C882.44 182.148 874.93 181.898 874.93 183.668C874.93 183.798 875.09 184.178 875.55 184.178H948.92L957.52 167.358C957.99 166.348 957.68 165.838 956.9 165.838C956.28 165.838 955.81 166.348 954.55 167.478C951.26 170.388 947.36 173.168 942.66 175.698C937.97 178.098 931.56 179.368 923.58 179.368H906.37C900.58 179.368 895.89 178.988 895.73 175.328V175.308Z" fill="#242D32" style="fill:#242D32;fill:color(display-p3 0.1412 0.1765 0.1961);fill-opacity:1;"/>
<path d="M757.779 208.134V234.624C757.829 235.874 759.409 236.004 761.339 236.004H762.129C767.629 236.004 770.779 233.244 773.029 231.184C773.449 230.794 773.609 230.624 773.809 230.624C774.069 230.624 774.179 230.794 774.019 231.144L770.609 237.644H751.009C750.849 237.644 750.799 237.514 750.799 237.474C750.799 236.874 753.319 236.954 753.319 234.844V208.144C753.319 206.034 750.799 206.124 750.799 205.514C750.799 205.474 750.849 205.344 751.009 205.344H760.439C760.599 205.344 760.649 205.474 760.649 205.514C760.649 206.114 757.769 206.034 757.769 208.144L757.779 208.134Z" fill="#242D32" style="fill:#242D32;fill:color(display-p3 0.1412 0.1765 0.1961);fill-opacity:1;"/>
<path d="M720.309 237.646H713.099C712.939 237.646 712.889 237.516 712.889 237.476C712.889 236.876 715.359 236.706 716.419 234.726L729.109 204.766H730.789L744.059 234.806C745.169 236.656 747.529 236.956 747.529 237.466C747.529 237.506 747.479 237.636 747.319 237.636H738.109C737.949 237.636 737.899 237.506 737.899 237.466C737.899 236.826 740.159 236.866 739.529 234.806L738.109 231.406H720.309L718.839 235.056C718.209 236.816 720.519 236.856 720.519 237.466C720.519 237.506 720.469 237.636 720.309 237.636V237.646ZM728.999 210.136L720.999 229.776H737.429L728.999 210.136Z" fill="#242D32" style="fill:#242D32;fill:color(display-p3 0.1412 0.1765 0.1961);fill-opacity:1;"/>
<path d="M706.11 237.644H695.43C695.27 237.644 695.22 237.514 695.22 237.474C695.22 236.824 698.53 237.004 698.53 234.844V208.354C698.48 207.104 696.9 206.974 694.95 206.974H693.37C691.32 206.974 689.74 207.444 688.64 208.354C687.54 209.254 686.43 210.164 685.43 211.154C685.01 211.544 684.85 211.804 684.64 211.804C684.38 211.804 684.38 211.634 684.43 211.284L686.17 205.344H715.36L717.1 211.284C717.15 211.624 717.15 211.804 716.89 211.804C716.68 211.804 716.52 211.544 716.1 211.154C715.1 210.164 714 209.254 712.89 208.354C711.78 207.454 710.21 206.974 708.16 206.974H706.58C704.63 206.974 703.05 207.104 703 208.354V234.844C703 236.994 706.31 236.824 706.31 237.474C706.31 237.514 706.26 237.644 706.1 237.644H706.11Z" fill="#242D32" style="fill:#242D32;fill:color(display-p3 0.1412 0.1765 0.1961);fill-opacity:1;"/>
<path d="M681.11 237.644H671.73C671.57 237.644 671.51 237.514 671.51 237.474C671.51 236.874 674.11 236.954 674.11 234.844V208.144C674.11 206.034 671.51 206.124 671.51 205.514C671.51 205.474 671.56 205.344 671.73 205.344H681.11C681.27 205.344 681.33 205.474 681.33 205.514C681.33 206.114 678.73 206.034 678.73 208.144V234.844C678.73 236.954 681.33 236.864 681.33 237.474C681.33 237.514 681.28 237.644 681.11 237.644Z" fill="#242D32" style="fill:#242D32;fill:color(display-p3 0.1412 0.1765 0.1961);fill-opacity:1;"/>
<path d="M651.269 237.643H641.509C641.349 237.643 641.299 237.513 641.299 237.473C641.299 236.863 643.859 236.953 643.859 234.833V208.013C643.859 205.893 641.299 205.983 641.299 205.373C641.299 205.333 641.349 205.203 641.509 205.203C647.319 205.203 649.399 204.773 654.309 204.773C662.899 204.773 668.819 208.363 668.819 214.293C668.819 220.223 662.419 223.813 655.379 223.813C652.769 223.813 650.469 223.463 648.389 222.563V234.853C648.389 236.973 651.479 236.883 651.479 237.493C651.479 237.533 651.429 237.663 651.269 237.663V237.643ZM655.379 222.413C660.769 222.413 663.749 218.783 663.749 214.283C663.749 209.393 660.979 206.153 654.309 206.153C652.069 206.153 648.389 206.373 648.389 208.233V220.783C650.359 222.123 653.239 222.423 655.379 222.423V222.413Z" fill="#242D32" style="fill:#242D32;fill:color(display-p3 0.1412 0.1765 0.1961);fill-opacity:1;"/>
<path d="M611.999 237.646H604.749C604.589 237.646 604.539 237.516 604.539 237.476C604.539 236.876 607.029 236.706 608.089 234.726L620.849 204.766H622.539L635.879 234.806C636.989 236.656 639.369 236.956 639.369 237.466C639.369 237.506 639.319 237.636 639.159 237.636H629.889C629.729 237.636 629.679 237.506 629.679 237.466C629.679 236.826 631.959 236.866 631.319 234.806L629.889 231.406H611.999L610.519 235.056C609.879 236.816 612.209 236.856 612.209 237.466C612.209 237.506 612.159 237.636 611.999 237.636V237.646ZM620.739 210.136L612.689 229.776H629.209L620.739 210.136Z" fill="#242D32" style="fill:#242D32;fill:color(display-p3 0.1412 0.1765 0.1961);fill-opacity:1;"/>
<path d="M577.179 221.496C577.179 230.306 582.399 236.376 590.959 236.646C596.879 236.646 600.499 234.436 602.849 230.866C603.059 230.566 603.369 230.566 603.369 230.906V234.696C602.059 235.756 597.289 238.226 591.209 238.226C581.199 238.226 572.189 231.546 572.189 221.496C572.189 211.446 581.359 204.766 591.419 204.766C597.339 204.766 602.009 207.066 603.209 208.046V211.366C603.209 211.706 602.899 211.706 602.689 211.406C600.539 208.386 596.769 206.346 591.159 206.346C582.389 206.676 577.169 212.686 577.169 221.496H577.179Z" fill="#242D32" style="fill:#242D32;fill:color(display-p3 0.1412 0.1765 0.1961);fill-opacity:1;"/>
<path d="M936.109 237.643H926.349C926.189 237.643 926.139 237.513 926.139 237.473C926.139 236.863 928.699 236.953 928.699 234.833V208.013C928.699 205.893 926.139 205.983 926.139 205.373C926.139 205.333 926.189 205.203 926.349 205.203C932.159 205.203 934.239 204.773 939.149 204.773C947.739 204.773 953.659 208.363 953.659 214.293C953.659 220.223 947.259 223.813 940.219 223.813C937.609 223.813 935.309 223.463 933.229 222.563V234.853C933.229 236.973 936.319 236.883 936.319 237.493C936.319 237.533 936.269 237.663 936.109 237.663V237.643ZM940.219 222.413C945.609 222.413 948.589 218.783 948.589 214.283C948.589 209.393 945.819 206.153 939.149 206.153C936.909 206.153 933.229 206.373 933.229 208.233V220.783C935.199 222.123 938.079 222.423 940.219 222.423V222.413Z" fill="#242D32" style="fill:#242D32;fill:color(display-p3 0.1412 0.1765 0.1961);fill-opacity:1;"/>
<path d="M920.52 208.346V227.216C920.52 235.296 914.4 238.216 908.11 238.216C901.82 238.216 895.18 235.296 895.18 227.426V208.126C895.18 206.016 892.65 206.106 892.65 205.506C892.65 205.466 892.7 205.336 892.86 205.336H901.99C902.15 205.336 902.2 205.466 902.2 205.506C902.2 206.106 899.67 206.026 899.67 208.126V227.426C899.67 233.956 902.89 236.626 908.38 236.626C913.87 236.626 918.15 234.046 918.15 227.216V208.346C917.83 206.066 915.62 206.066 915.62 205.506C915.62 205.466 915.67 205.336 915.83 205.336H922.85C923.01 205.336 923.06 205.466 923.06 205.506C923.06 206.066 920.84 206.066 920.53 208.346H920.52Z" fill="#242D32" style="fill:#242D32;fill:color(display-p3 0.1412 0.1765 0.1961);fill-opacity:1;"/>
<path d="M889.179 221.496C889.179 231.576 880.699 238.226 871.859 238.226C863.019 238.226 854.539 231.576 854.539 221.496C854.539 211.416 862.909 204.766 871.859 204.766C880.809 204.766 889.179 211.416 889.179 221.496ZM859.539 221.496C859.539 230.456 863.699 236.936 871.859 236.936C880.019 236.936 884.179 230.456 884.179 221.496C884.179 212.536 880.019 206.136 871.859 206.136C863.699 206.136 859.539 212.566 859.539 221.496Z" fill="#242D32" style="fill:#242D32;fill:color(display-p3 0.1412 0.1765 0.1961);fill-opacity:1;"/>
<path d="M810.629 217.676H819.649C819.809 217.676 819.859 217.806 819.859 217.846C819.859 218.446 817.329 218.366 817.329 220.466V232.476C818.809 232.606 820.289 232.866 820.289 233.206C820.289 233.416 818.549 233.636 816.699 234.196C812.639 235.486 807.889 238.226 802.559 238.226C793.059 238.226 784.299 231.746 784.299 221.626C784.299 211.506 793.529 204.766 803.609 204.766C809.729 204.766 815.009 207.036 816.119 208.156V211.506C816.119 211.846 815.799 211.846 815.589 211.546C813.219 208.456 809.309 206.136 803.349 206.136C794.219 206.136 789.309 212.746 789.309 221.616C789.309 230.486 793.899 236.846 802.559 236.846C808.469 236.846 812.959 233.716 812.959 231.356V220.456C812.959 218.356 810.219 218.436 810.219 217.836C810.219 217.796 810.379 217.666 810.639 217.666L810.629 217.676Z" fill="#242D32" style="fill:#242D32;fill:color(display-p3 0.1412 0.1765 0.1961);fill-opacity:1;"/>
<path fill-rule="evenodd" clip-rule="evenodd" d="M823.38 237.633H833.08C833.24 237.633 833.29 237.503 833.29 237.463C833.29 237.253 832.92 237.123 832.43 236.953C831.52 236.643 830.21 236.193 830.21 234.803V222.643C832.2 223.523 834.38 223.873 836.85 223.903L845.83 235.383C846.7 236.493 845.9 236.853 845.34 237.103C845.04 237.233 844.81 237.333 844.95 237.503C844.99 237.553 845.11 237.643 845.27 237.643H854.22C854.38 237.643 854.33 237.523 854.29 237.473C854.16 237.303 853.8 237.123 853.3 236.993C852.35 236.743 851.14 236.363 850.27 235.253L841.04 223.503C846.34 222.363 850.52 218.923 850.52 214.343C850.52 208.383 844.63 204.773 836.1 204.773C833.76 204.773 832.07 204.873 830.31 204.973C828.39 205.083 826.39 205.203 823.37 205.203C823.21 205.203 823.16 205.333 823.16 205.373C823.16 205.583 823.47 205.713 823.87 205.883C824.62 206.193 825.7 206.643 825.7 208.033V234.813C825.7 236.203 824.62 236.653 823.87 236.963C823.47 237.133 823.16 237.253 823.16 237.473C823.16 237.513 823.21 237.643 823.37 237.643L823.38 237.633ZM845.49 214.333C845.49 218.853 842.52 222.513 837.16 222.513C835.04 222.513 832.18 222.213 830.21 220.863V208.243C830.21 206.373 833.87 206.153 836.1 206.153C842.73 206.153 845.49 209.413 845.49 214.333Z" fill="#242D32" style="fill:#242D32;fill:color(display-p3 0.1412 0.1765 0.1961);fill-opacity:1;"/>
</svg>
